<?xml version="1.0" encoding="iso-8859-1"?>
<!-- Uploaded to: SVG Repo, www.svgrepo.com, Generator: SVG Repo Mixer Tools -->
<svg fill="#000000" height="800px" width="800px" version="1.1" id="Capa_1" xmlns="http://www.w3.org/2000/svg" xmlns:xlink="http://www.w3.org/1999/xlink" 
	 viewBox="0 0 490 490" xml:space="preserve">
<g>
	<path d="M403.544,159.628C403.544,62.664,341.346,0,245,0C148.654,0,86.455,62.664,86.455,159.628
		c0,80.822,124.884,243.061,139.153,261.219l17.441,22.417c-73.058,0.191-131.968,10.568-131.968,23.359
		c0,12.911,59.993,23.377,133.997,23.377c74.004,0,133.996-10.466,133.996-23.377c0-12.799-58.986-23.182-132.111-23.36
		l17.549-22.416C278.66,402.57,403.544,240.331,403.544,159.628z M117.08,159.628c0-79.572,49.016-129.003,127.919-129.003
		c78.904,0,127.92,49.431,127.92,129.003c0,47.987-63.528,152.16-127.889,236.321C191.891,327.219,117.08,212.035,117.08,159.628z"
		/>
	<ellipse cx="245" cy="159.518" rx="51.344" ry="49.965"/>
</g>
</svg>